<svg width="31" height="35" viewBox="0 0 31 35" fill="none" xmlns="http://www.w3.org/2000/svg">
<path fill-rule="evenodd" clip-rule="evenodd" d="M29.9745 0.0360921C30.0552 0.0648301 30.1503 0.144408 30.186 0.21302C30.355 0.537911 30.5035 2.70608 30.4507 4.07757C30.393 5.57763 30.2264 7.11446 30.1216 7.11446C30.022 7.11446 28.7774 6.47199 28.1625 6.10318C27.4164 5.65558 26.3702 4.91879 25.7411 4.39774C25.4744 4.17689 24.9922 3.7425 24.6694 3.43235C24.0767 2.86265 23.1962 1.8972 23.1962 1.81689C23.1962 1.76436 23.4082 1.67264 24.2888 1.34404C25.6464 0.83755 27.5542 0.340906 29.0095 0.115276C29.3354 0.0647179 29.6529 0.0144971 29.715 0.00358684C29.777 -0.00726723 29.8938 0.00735414 29.9745 0.0360921ZM22.6168 2.76952C23.403 3.7213 24.4381 4.71347 25.5384 5.56987C26.6164 6.40889 28.3198 7.45572 29.3763 7.92846C29.6867 8.06737 29.9488 8.2186 29.9586 8.26449C29.9874 8.39924 29.4873 10.3362 29.2027 11.1918C28.7956 12.4156 28.4809 13.1787 27.8809 14.3974C27.0942 15.9951 26.3836 17.1549 25.3656 18.5028C24.5752 19.5493 24.004 20.2054 22.9733 21.2505C21.129 23.1204 19.2698 24.5953 16.9142 26.0571C15.6886 26.8176 14.6983 27.3635 14.4804 27.3988C14.3415 27.4212 14.2289 27.3982 14.0978 27.3207C13.9955 27.2604 13.4166 26.8334 12.8113 26.372C12.206 25.9106 11.4781 25.3558 11.1937 25.1391C8.50578 23.0915 7.91419 22.6336 7.81643 22.5249C7.65163 22.3417 7.67759 21.964 7.92017 21.0153C8.78798 17.6207 10.1432 14.4446 11.9558 11.5573C13.061 9.79694 14.2303 8.33794 15.7435 6.83158C17.5867 4.99663 19.3067 3.72766 21.5652 2.5363L22.1635 2.22068L22.6168 2.76952ZM19.7816 8.71676C19.4738 8.77126 19.1596 8.88092 18.7946 9.06134C18.3619 9.27516 18.1758 9.4099 17.8255 9.76331C17.4971 10.0944 17.3361 10.3141 17.1622 10.6681C17.0359 10.9252 16.8926 11.2874 16.8439 11.473C16.7283 11.9127 16.727 12.7752 16.8413 13.2614C16.938 13.6731 17.1625 14.1651 17.4312 14.5542C17.6964 14.9384 18.2818 15.4484 18.7223 15.679C19.8248 16.2563 21.1455 16.2564 22.2537 15.6792C22.5256 15.5376 22.8113 15.3185 23.1176 15.0168C23.4826 14.6573 23.6224 14.4694 23.8084 14.0881C23.9367 13.8251 24.08 13.4592 24.1269 13.2749C24.2362 12.8447 24.2349 11.9701 24.1242 11.5019C24.0111 11.0238 23.715 10.4263 23.394 10.0281C22.8865 9.39877 21.984 8.8573 21.2096 8.71749C20.6687 8.61981 20.3303 8.61964 19.7816 8.71676ZM9.35503 13.6757C9.3942 13.6914 9.45312 13.7542 9.48597 13.8154C9.53496 13.9066 9.47496 14.0752 9.15235 14.7525C8.37823 16.378 7.63543 18.4189 7.1325 20.3024C6.71592 21.8626 6.72303 21.8417 6.57708 21.937C6.45003 22.02 6.26751 21.9961 3.77068 21.5697C0.169616 20.9548 0.223798 20.9653 0.104541 20.8577C-0.0764036 20.6945 -0.0262854 20.4483 0.285035 19.971C0.961011 18.9347 1.79513 17.9126 2.64912 17.0745C3.76453 15.9798 4.78027 15.2506 6.06681 14.6211C6.47035 14.4236 7.0672 14.1749 7.39314 14.0684C8.14277 13.8234 9.19672 13.6125 9.35503 13.6757ZM22.3479 23.4498C22.5418 23.6826 22.5593 25.5162 22.3775 26.5449C22.2453 27.2931 21.9849 28.2328 21.7211 28.9131C21.4397 29.6392 20.9103 30.6863 20.4632 31.4015C19.7821 32.4909 18.3911 34.1931 18.1283 34.2588C17.7953 34.3421 17.7731 34.3045 16.3534 31.2554C15.2177 28.8162 15.0213 28.3567 15.0655 28.241C15.1043 28.1394 15.3527 27.9834 16.0386 27.63C18.0129 26.613 20.1078 25.1639 21.6249 23.7658C21.8626 23.5467 22.1071 23.3674 22.1683 23.3674C22.2293 23.3674 22.3102 23.4045 22.3479 23.4498ZM7.36113 24.7704C7.5567 24.8989 7.67065 25.0848 7.67313 25.2796C7.67488 25.4161 7.49845 25.6524 4.54588 29.4693C3.33305 31.0372 3.16012 31.2437 3.01281 31.2995C2.83418 31.3672 2.4658 31.2247 2.34513 31.0412C2.29676 30.9676 2.25748 30.8242 2.25782 30.7226C2.25839 30.5735 2.38453 30.3754 2.91263 29.6943C3.27232 29.2303 4.23078 27.9917 5.04249 26.9419C5.8542 25.892 6.59751 24.9493 6.6943 24.847C6.90002 24.6295 7.10992 24.6054 7.36113 24.7704ZM11.3157 27.833C11.6079 27.9615 11.7851 28.2516 11.7119 28.4813C11.6929 28.5411 11.2208 29.1802 10.6627 29.9014C10.1047 30.6226 9.28679 31.6796 8.84515 32.2503C7.41345 34.1003 7.17454 34.3863 7.03091 34.4222C6.85278 34.4668 6.69831 34.4156 6.49394 34.2442C6.29528 34.0777 6.22851 33.8309 6.33123 33.6428C6.37203 33.568 6.72867 33.0918 7.12375 32.5847C7.51877 32.0776 8.25322 31.1312 8.75581 30.4816C10.8915 27.7214 10.867 27.7502 11.0721 27.7563C11.113 27.7575 11.2226 27.792 11.3157 27.833ZM8.10315 28.085C8.32794 28.2217 8.44906 28.5011 8.37185 28.705C8.34064 28.7873 7.8455 29.4611 7.27157 30.2024C6.69758 30.9437 5.78755 32.1196 5.24917 32.8155C3.81278 34.6725 3.86471 34.6152 3.61897 34.6152C3.40845 34.6152 3.17863 34.4977 3.07552 34.3374C2.97054 34.1742 2.93933 33.9801 2.99989 33.8673C3.03302 33.8056 3.36663 33.3602 3.74122 32.8776C4.11581 32.3949 5.01799 31.2282 5.74606 30.2848C7.50557 28.0049 7.52814 27.979 7.75023 27.9792C7.84872 27.9794 8.00754 28.027 8.10315 28.085Z" fill="#FF5A5F"/>
</svg>
