<svg width="78" height="86" viewBox="0 0 78 86" fill="none" xmlns="http://www.w3.org/2000/svg">
<path d="M38.7242 0.296579C47.4822 0.296579 55.53 3.60132 61.9209 9.19395L69.9687 0L77.4485 5.21132L68.0751 15.8882C73.4246 23.2179 76.5964 32.4966 76.5964 42.665C76.5964 65.9676 59.6486 85.0334 38.7242 85.0334C29.9663 85.0334 21.9185 81.7287 15.5276 76.136L7.47974 85.33L0 80.1187L9.37335 69.4418C4.02391 62.1121 0.852123 52.8334 0.852123 42.665C0.852123 19.3624 17.7999 0.296579 38.7242 0.296579ZM38.7242 8.77026C23.0547 8.77026 10.3202 23.9382 10.3202 42.665C10.3202 49.9947 12.2611 56.7737 15.5749 62.3239L56.0981 15.8458C51.3167 11.3971 45.2572 8.77026 38.7242 8.77026ZM38.7242 76.5597C54.3938 76.5597 67.1283 61.3918 67.1283 42.665C67.1283 35.3353 65.1874 28.5563 61.8736 23.0061L21.3504 69.4842C26.1318 73.9329 32.1913 76.5597 38.7242 76.5597Z" fill="#F53838"/>
</svg>
