<svg width="111" height="36" viewBox="0 0 111 36" fill="none" xmlns="http://www.w3.org/2000/svg">
<path d="M42.0815 24.7C40.7482 24.7 39.6415 24.5133 38.7615 24.14C37.8815 23.7533 37.2149 23.2533 36.7615 22.64C36.3082 22.0267 36.0682 21.3733 36.0415 20.68C36.0415 20.5733 36.0815 20.48 36.1615 20.4C36.2549 20.3067 36.3615 20.26 36.4815 20.26H39.0015C39.1882 20.26 39.3282 20.2933 39.4215 20.36C39.5282 20.4267 39.6215 20.5133 39.7015 20.62C39.8082 20.82 39.9549 21.0133 40.1415 21.2C40.3415 21.3867 40.5949 21.54 40.9015 21.66C41.2215 21.7667 41.6149 21.82 42.0815 21.82C42.8549 21.82 43.4349 21.7 43.8215 21.46C44.2215 21.22 44.4215 20.8933 44.4215 20.48C44.4215 20.1867 44.3149 19.9467 44.1015 19.76C43.8882 19.56 43.5415 19.3867 43.0615 19.24C42.5949 19.08 41.9682 18.92 41.1815 18.76C40.1682 18.5467 39.3015 18.2733 38.5815 17.94C37.8749 17.5933 37.3349 17.1467 36.9615 16.6C36.5882 16.04 36.4015 15.3467 36.4015 14.52C36.4015 13.7067 36.6282 12.98 37.0815 12.34C37.5482 11.7 38.1949 11.2 39.0215 10.84C39.8482 10.48 40.8282 10.3 41.9615 10.3C42.8815 10.3 43.6882 10.42 44.3815 10.66C45.0882 10.9 45.6815 11.22 46.1615 11.62C46.6415 12.02 47.0015 12.4467 47.2415 12.9C47.4949 13.34 47.6282 13.7733 47.6415 14.2C47.6415 14.3067 47.6015 14.4067 47.5215 14.5C47.4415 14.58 47.3415 14.62 47.2215 14.62H44.5815C44.4349 14.62 44.3082 14.5933 44.2015 14.54C44.0949 14.4867 44.0015 14.4 43.9215 14.28C43.8415 13.9867 43.6282 13.7333 43.2815 13.52C42.9482 13.2933 42.5082 13.18 41.9615 13.18C41.3749 13.18 40.9149 13.2867 40.5815 13.5C40.2615 13.7 40.1015 14.0133 40.1015 14.44C40.1015 14.7067 40.1882 14.94 40.3615 15.14C40.5482 15.34 40.8482 15.5133 41.2615 15.66C41.6882 15.8067 42.2682 15.96 43.0015 16.12C44.2149 16.3467 45.1949 16.6333 45.9415 16.98C46.6882 17.3133 47.2349 17.7533 47.5815 18.3C47.9282 18.8333 48.1015 19.5067 48.1015 20.32C48.1015 21.2267 47.8415 22.0133 47.3215 22.68C46.8149 23.3333 46.1082 23.8333 45.2015 24.18C44.2949 24.5267 43.2549 24.7 42.0815 24.7ZM50.3837 28.3C50.2371 28.3 50.1171 28.2533 50.0237 28.16C49.9304 28.0667 49.8837 27.9467 49.8837 27.8V14.6C49.8837 14.4533 49.9304 14.3333 50.0237 14.24C50.1171 14.1467 50.2371 14.1 50.3837 14.1H52.6437C52.7771 14.1 52.8904 14.1467 52.9837 14.24C53.0904 14.3333 53.1437 14.4533 53.1437 14.6V15.34C53.4504 14.9267 53.8571 14.5867 54.3637 14.32C54.8704 14.04 55.4971 13.9 56.2437 13.9C56.9104 13.9 57.4971 14.0067 58.0037 14.22C58.5104 14.42 58.9437 14.72 59.3037 15.12C59.6637 15.52 59.9437 16.0067 60.1437 16.58C60.3571 17.1533 60.4771 17.8133 60.5037 18.56C60.5171 18.8267 60.5237 19.0733 60.5237 19.3C60.5237 19.5267 60.5171 19.7733 60.5037 20.04C60.4771 20.76 60.3637 21.4067 60.1637 21.98C59.9637 22.5533 59.6837 23.04 59.3237 23.44C58.9637 23.84 58.5237 24.1533 58.0037 24.38C57.4971 24.5933 56.9104 24.7 56.2437 24.7C55.5904 24.7 55.0171 24.5867 54.5237 24.36C54.0437 24.12 53.6437 23.7867 53.3237 23.36V27.8C53.3237 27.9467 53.2771 28.0667 53.1837 28.16C53.0904 28.2533 52.9704 28.3 52.8237 28.3H50.3837ZM55.1637 22.02C55.6171 22.02 55.9704 21.9267 56.2237 21.74C56.4771 21.5533 56.6571 21.3 56.7637 20.98C56.8837 20.66 56.9571 20.3067 56.9837 19.92C57.0104 19.5067 57.0104 19.0933 56.9837 18.68C56.9571 18.2933 56.8837 17.94 56.7637 17.62C56.6571 17.3 56.4771 17.0467 56.2237 16.86C55.9704 16.6733 55.6171 16.58 55.1637 16.58C54.7237 16.58 54.3704 16.68 54.1037 16.88C53.8371 17.0667 53.6437 17.3133 53.5237 17.62C53.4037 17.9267 53.3371 18.26 53.3237 18.62C53.3104 18.8733 53.3037 19.12 53.3037 19.36C53.3037 19.6 53.3104 19.8533 53.3237 20.12C53.3371 20.4533 53.4104 20.7667 53.5437 21.06C53.6771 21.34 53.8771 21.5733 54.1437 21.76C54.4104 21.9333 54.7504 22.02 55.1637 22.02ZM67.3009 24.7C65.7276 24.7 64.4743 24.2733 63.5409 23.42C62.6076 22.5667 62.1209 21.3 62.0809 19.62C62.0809 19.5267 62.0809 19.4067 62.0809 19.26C62.0809 19.1133 62.0809 19 62.0809 18.92C62.1209 17.8667 62.3543 16.9667 62.7809 16.22C63.2209 15.46 63.8209 14.8867 64.5809 14.5C65.3543 14.1 66.2543 13.9 67.2809 13.9C68.4543 13.9 69.4209 14.1333 70.1809 14.6C70.9543 15.0667 71.5343 15.7 71.9209 16.5C72.3076 17.3 72.5009 18.2133 72.5009 19.24V19.72C72.5009 19.8667 72.4476 19.9867 72.3409 20.08C72.2476 20.1733 72.1343 20.22 72.0009 20.22H65.6009C65.6009 20.2333 65.6009 20.2533 65.6009 20.28C65.6009 20.3067 65.6009 20.3333 65.6009 20.36C65.6143 20.7467 65.6809 21.1 65.8009 21.42C65.9209 21.74 66.1076 21.9933 66.3609 22.18C66.6143 22.3667 66.9209 22.46 67.2809 22.46C67.5476 22.46 67.7676 22.42 67.9409 22.34C68.1276 22.2467 68.2809 22.1467 68.4009 22.04C68.5209 21.92 68.6143 21.82 68.6809 21.74C68.8009 21.6067 68.8943 21.5267 68.9609 21.5C69.0409 21.46 69.1609 21.44 69.3209 21.44H71.8009C71.9343 21.44 72.0409 21.48 72.1209 21.56C72.2143 21.6267 72.2543 21.7267 72.2409 21.86C72.2276 22.0867 72.1143 22.36 71.9009 22.68C71.6876 23 71.3743 23.32 70.9609 23.64C70.5609 23.9467 70.0543 24.2 69.4409 24.4C68.8276 24.6 68.1143 24.7 67.3009 24.7ZM65.6009 18.24H68.9809V18.2C68.9809 17.7733 68.9143 17.4 68.7809 17.08C68.6609 16.76 68.4676 16.5133 68.2009 16.34C67.9476 16.1667 67.6409 16.08 67.2809 16.08C66.9209 16.08 66.6143 16.1667 66.3609 16.34C66.1209 16.5133 65.9343 16.76 65.8009 17.08C65.6676 17.4 65.6009 17.7733 65.6009 18.2V18.24ZM79.1759 24.7C77.6026 24.7 76.3493 24.2733 75.4159 23.42C74.4826 22.5667 73.9959 21.3 73.9559 19.62C73.9559 19.5267 73.9559 19.4067 73.9559 19.26C73.9559 19.1133 73.9559 19 73.9559 18.92C73.9959 17.8667 74.2293 16.9667 74.6559 16.22C75.0959 15.46 75.6959 14.8867 76.4559 14.5C77.2293 14.1 78.1293 13.9 79.1559 13.9C80.3293 13.9 81.2959 14.1333 82.0559 14.6C82.8293 15.0667 83.4093 15.7 83.7959 16.5C84.1826 17.3 84.3759 18.2133 84.3759 19.24V19.72C84.3759 19.8667 84.3226 19.9867 84.2159 20.08C84.1226 20.1733 84.0093 20.22 83.8759 20.22H77.4759C77.4759 20.2333 77.4759 20.2533 77.4759 20.28C77.4759 20.3067 77.4759 20.3333 77.4759 20.36C77.4893 20.7467 77.5559 21.1 77.6759 21.42C77.7959 21.74 77.9826 21.9933 78.2359 22.18C78.4893 22.3667 78.7959 22.46 79.1559 22.46C79.4226 22.46 79.6426 22.42 79.8159 22.34C80.0026 22.2467 80.1559 22.1467 80.2759 22.04C80.3959 21.92 80.4893 21.82 80.5559 21.74C80.6759 21.6067 80.7693 21.5267 80.8359 21.5C80.9159 21.46 81.0359 21.44 81.1959 21.44H83.6759C83.8093 21.44 83.9159 21.48 83.9959 21.56C84.0893 21.6267 84.1293 21.7267 84.1159 21.86C84.1026 22.0867 83.9893 22.36 83.7759 22.68C83.5626 23 83.2493 23.32 82.8359 23.64C82.4359 23.9467 81.9293 24.2 81.3159 24.4C80.7026 24.6 79.9893 24.7 79.1759 24.7ZM77.4759 18.24H80.8559V18.2C80.8559 17.7733 80.7893 17.4 80.6559 17.08C80.5359 16.76 80.3426 16.5133 80.0759 16.34C79.8226 16.1667 79.5159 16.08 79.1559 16.08C78.7959 16.08 78.4893 16.1667 78.2359 16.34C77.9959 16.5133 77.8093 16.76 77.6759 17.08C77.5426 17.4 77.4759 17.7733 77.4759 18.2V18.24ZM90.1309 24.7C89.4909 24.7 88.9109 24.6 88.3909 24.4C87.8843 24.1867 87.4443 23.88 87.0709 23.48C86.7109 23.0667 86.4309 22.5733 86.2309 22C86.0309 21.4133 85.9176 20.7467 85.8909 20C85.8776 19.7333 85.8709 19.5 85.8709 19.3C85.8709 19.0867 85.8776 18.8533 85.8909 18.6C85.9176 17.88 86.0309 17.2333 86.2309 16.66C86.4309 16.0867 86.7109 15.5933 87.0709 15.18C87.4309 14.7667 87.8709 14.4533 88.3909 14.24C88.9109 14.0133 89.4909 13.9 90.1309 13.9C90.7976 13.9 91.3709 14.0133 91.8509 14.24C92.3309 14.4533 92.7376 14.7333 93.0709 15.08V10.8C93.0709 10.6533 93.1176 10.5333 93.2109 10.44C93.3043 10.3467 93.4243 10.3 93.5709 10.3H96.0109C96.1443 10.3 96.2576 10.3467 96.3509 10.44C96.4576 10.5333 96.5109 10.6533 96.5109 10.8V24C96.5109 24.1467 96.4576 24.2667 96.3509 24.36C96.2576 24.4533 96.1443 24.5 96.0109 24.5H93.7509C93.6043 24.5 93.4843 24.4533 93.3909 24.36C93.2976 24.2667 93.2509 24.1467 93.2509 24V23.36C92.9309 23.7467 92.5176 24.0667 92.0109 24.32C91.5043 24.5733 90.8776 24.7 90.1309 24.7ZM91.2109 22.02C91.6643 22.02 92.0176 21.9267 92.2709 21.74C92.5376 21.54 92.7309 21.2867 92.8509 20.98C92.9843 20.6733 93.0576 20.34 93.0709 19.98C93.0843 19.7133 93.0909 19.46 93.0909 19.22C93.0909 18.98 93.0843 18.7333 93.0709 18.48C93.0576 18.1467 92.9843 17.84 92.8509 17.56C92.7176 17.2667 92.5176 17.0333 92.2509 16.86C91.9843 16.6733 91.6376 16.58 91.2109 16.58C90.7709 16.58 90.4176 16.6733 90.1509 16.86C89.8976 17.0467 89.7176 17.3 89.6109 17.62C89.5043 17.94 89.4376 18.2933 89.4109 18.68C89.3709 19.0933 89.3709 19.5067 89.4109 19.92C89.4376 20.3067 89.5043 20.66 89.6109 20.98C89.7176 21.3 89.8976 21.5533 90.1509 21.74C90.4176 21.9267 90.7709 22.02 91.2109 22.02ZM100.808 28.3C100.688 28.3 100.588 28.26 100.508 28.18C100.428 28.1 100.388 28 100.388 27.88C100.388 27.8533 100.388 27.8133 100.388 27.76C100.401 27.72 100.421 27.6733 100.448 27.62L102.008 23.86L98.1681 14.78C98.1281 14.6867 98.1081 14.6067 98.1081 14.54C98.1348 14.42 98.1881 14.32 98.2681 14.24C98.3481 14.1467 98.4481 14.1 98.5681 14.1H100.848C101.021 14.1 101.148 14.1467 101.228 14.24C101.321 14.32 101.381 14.4133 101.408 14.52L103.708 20.34L106.048 14.52C106.101 14.4133 106.168 14.32 106.248 14.24C106.341 14.1467 106.475 14.1 106.648 14.1H108.888C109.008 14.1 109.108 14.1467 109.188 14.24C109.281 14.32 109.328 14.4133 109.328 14.52C109.328 14.5867 109.308 14.6733 109.268 14.78L103.608 27.88C103.568 27.9867 103.501 28.08 103.408 28.16C103.315 28.2533 103.181 28.3 103.008 28.3H100.808Z" fill="#0B132A"/>
<path fill-rule="evenodd" clip-rule="evenodd" d="M29.9745 0.536092C30.0552 0.56483 30.1503 0.644408 30.186 0.71302C30.355 1.03791 30.5035 3.20608 30.4507 4.57757C30.393 6.07763 30.2264 7.61446 30.1216 7.61446C30.022 7.61446 28.7774 6.97199 28.1625 6.60318C27.4164 6.15558 26.3702 5.41879 25.7411 4.89774C25.4744 4.67689 24.9922 4.2425 24.6694 3.93235C24.0767 3.36265 23.1962 2.3972 23.1962 2.31689C23.1962 2.26436 23.4082 2.17264 24.2888 1.84404C25.6464 1.33755 27.5542 0.840906 29.0095 0.615276C29.3354 0.564718 29.6529 0.514497 29.715 0.503587C29.777 0.492733 29.8938 0.507354 29.9745 0.536092ZM22.6168 3.26952C23.403 4.2213 24.4381 5.21347 25.5384 6.06987C26.6164 6.90889 28.3198 7.95572 29.3763 8.42846C29.6867 8.56737 29.9488 8.7186 29.9586 8.76449C29.9874 8.89924 29.4873 10.8362 29.2027 11.6918C28.7956 12.9156 28.4809 13.6787 27.8809 14.8974C27.0942 16.4951 26.3836 17.6549 25.3656 19.0028C24.5752 20.0493 24.004 20.7054 22.9733 21.7505C21.129 23.6204 19.2698 25.0953 16.9142 26.5571C15.6886 27.3176 14.6983 27.8635 14.4804 27.8988C14.3415 27.9212 14.2289 27.8982 14.0978 27.8207C13.9955 27.7604 13.4166 27.3334 12.8113 26.872C12.206 26.4106 11.4781 25.8558 11.1937 25.6391C8.50578 23.5915 7.91419 23.1336 7.81643 23.0249C7.65163 22.8417 7.67759 22.464 7.92017 21.5153C8.78798 18.1207 10.1432 14.9446 11.9558 12.0573C13.061 10.2969 14.2303 8.83794 15.7435 7.33158C17.5867 5.49663 19.3067 4.22766 21.5652 3.0363L22.1635 2.72068L22.6168 3.26952ZM19.7816 9.21676C19.4738 9.27126 19.1596 9.38092 18.7946 9.56134C18.3619 9.77516 18.1758 9.9099 17.8255 10.2633C17.4971 10.5944 17.3361 10.8141 17.1622 11.1681C17.0359 11.4252 16.8926 11.7874 16.8439 11.973C16.7283 12.4128 16.727 13.2752 16.8413 13.7614C16.938 14.1731 17.1625 14.6651 17.4312 15.0542C17.6964 15.4384 18.2818 15.9484 18.7223 16.179C19.8248 16.7563 21.1455 16.7564 22.2537 16.1792C22.5256 16.0376 22.8113 15.8185 23.1176 15.5168C23.4826 15.1573 23.6224 14.9694 23.8084 14.5881C23.9367 14.3251 24.08 13.9592 24.1269 13.7749C24.2362 13.3447 24.2349 12.4701 24.1242 12.0019C24.0111 11.5238 23.715 10.9263 23.394 10.5281C22.8865 9.89877 21.984 9.3573 21.2096 9.21749C20.6687 9.11981 20.3303 9.11964 19.7816 9.21676ZM9.35503 14.1757C9.3942 14.1914 9.45312 14.2542 9.48597 14.3154C9.53496 14.4066 9.47496 14.5752 9.15236 15.2525C8.37823 16.878 7.63543 18.9189 7.1325 20.8024C6.71592 22.3626 6.72303 22.3417 6.57708 22.437C6.45003 22.52 6.26751 22.4961 3.77068 22.0697C0.169617 21.4548 0.223799 21.4653 0.104542 21.3577C-0.0764027 21.1945 -0.0262852 20.9483 0.285034 20.471C0.96101 19.4347 1.79513 18.4126 2.64911 17.5745C3.76453 16.4798 4.78027 15.7506 6.06681 15.1211C6.47035 14.9236 7.0672 14.6749 7.39314 14.5684C8.14277 14.3234 9.19672 14.1125 9.35503 14.1757ZM22.3479 23.9498C22.5418 24.1826 22.5593 26.0162 22.3775 27.0449C22.2453 27.7931 21.9849 28.7328 21.7211 29.4131C21.4397 30.1392 20.9103 31.1863 20.4632 31.9015C19.7821 32.9909 18.3911 34.6931 18.1283 34.7588C17.7953 34.8421 17.7731 34.8045 16.3534 31.7554C15.2177 29.3162 15.0213 28.8567 15.0655 28.741C15.1043 28.6394 15.3527 28.4834 16.0386 28.13C18.0129 27.113 20.1078 25.6639 21.6249 24.2658C21.8626 24.0467 22.1071 23.8674 22.1683 23.8674C22.2293 23.8674 22.3102 23.9045 22.3479 23.9498ZM7.36114 25.2704C7.5567 25.3989 7.67065 25.5848 7.67313 25.7796C7.67488 25.9161 7.49845 26.1524 4.54588 29.9693C3.33305 31.5372 3.16012 31.7437 3.01281 31.7995C2.83418 31.8672 2.4658 31.7247 2.34513 31.5412C2.29676 31.4676 2.25748 31.3242 2.25782 31.2226C2.25839 31.0735 2.38453 30.8754 2.91263 30.1943C3.27232 29.7303 4.23078 28.4917 5.04249 27.4419C5.8542 26.392 6.59751 25.4493 6.6943 25.347C6.90002 25.1295 7.10992 25.1054 7.36114 25.2704ZM11.3157 28.333C11.6079 28.4615 11.7851 28.7516 11.7119 28.9813C11.6929 29.0411 11.2208 29.6802 10.6627 30.4014C10.1047 31.1226 9.28679 32.1796 8.84516 32.7503C7.41345 34.6003 7.17455 34.8863 7.03091 34.9222C6.85278 34.9668 6.69831 34.9156 6.49394 34.7442C6.29527 34.5777 6.22851 34.3309 6.33123 34.1428C6.37203 34.068 6.72867 33.5919 7.12375 33.0847C7.51877 32.5776 8.25322 31.6312 8.75581 30.9816C10.8915 28.2214 10.867 28.2502 11.0721 28.2563C11.113 28.2575 11.2226 28.292 11.3157 28.333ZM8.10315 28.585C8.32795 28.7217 8.44906 29.0011 8.37185 29.205C8.34064 29.2873 7.8455 29.9611 7.27157 30.7024C6.69758 31.4437 5.78755 32.6196 5.24917 33.3155C3.81278 35.1725 3.86471 35.1152 3.61897 35.1152C3.40845 35.1152 3.17863 34.9977 3.07552 34.8374C2.97054 34.6742 2.93933 34.4801 2.99989 34.3673C3.03301 34.3056 3.36663 33.8602 3.74122 33.3776C4.11581 32.8949 5.01799 31.7282 5.74606 30.7848C7.50557 28.5049 7.52814 28.479 7.75023 28.4792C7.84872 28.4794 8.00754 28.527 8.10315 28.585Z" fill="#FF5A5F"/>
</svg>
